<svg xmlns="http://www.w3.org/2000/svg" width="16" height="14.84" viewBox="0 0 16 14.84"><defs><style>.a{fill:#fff;}</style></defs><path class="a" d="M8.128,12.263V10.568a.285.285,0,0,0-.085-.21.274.274,0,0,0-.2-.085H6.13a.274.274,0,0,0-.2.085.285.285,0,0,0-.085.21v1.695a.285.285,0,0,0,.085.21.274.274,0,0,0,.2.085H7.842a.274.274,0,0,0,.2-.085A.285.285,0,0,0,8.128,12.263ZM8.11,8.927,8.27,4.834a.2.2,0,0,0-.089-.169.345.345,0,0,0-.214-.1H6.005a.345.345,0,0,0-.214.1.213.213,0,0,0-.089.187l.152,4.076a.171.171,0,0,0,.089.147.384.384,0,0,0,.214.058h1.65a.363.363,0,0,0,.21-.058A.2.2,0,0,0,8.11,8.927ZM7.985.6l6.849,12.557a1.064,1.064,0,0,1-.018,1.124,1.141,1.141,0,0,1-.981.562H.137a1.115,1.115,0,0,1-.566-.152,1.121,1.121,0,0,1-.415-.41,1.064,1.064,0,0,1-.018-1.124L5.987.6A1.139,1.139,0,0,1,6.406.161a1.127,1.127,0,0,1,1.159,0A1.139,1.139,0,0,1,7.985.6Z" transform="translate(1.014)"/></svg>